<svg width="37" height="37" viewBox="0 0 37 37" fill="white" xmlns="http://www.w3.org/2000/svg">
    <g id="&#231;&#188;&#150;&#231;&#187;&#132;">
        <g id="&#229;&#189;&#162;&#231;&#138;&#182;&#231;&#187;&#147;&#229;&#144;&#136;">
            <mask id="path-1-inside-1_3276_7092" fill="white" >
                <path fill-rule="evenodd" clip-rule="evenodd" d="M9.66856 0.293681C9.28847 -0.0872491 8.67509 -0.0990995 8.28058 0.266866L5.36383 2.97255C4.99714 3.31271 4.43553 3.32963 4.04903 3.01216L3.29556 2.39328C2.87965 2.05166 2.26796 2.10051 1.91154 2.50381L0.27791 4.35227C-0.0971574 4.77667 -0.0452394 5.42755 0.392361 5.78712L4.23433 8.94401C4.62084 9.26159 5.18255 9.24472 5.54929 8.9045L11.39 3.48622C11.8053 3.10091 11.8179 2.44784 11.4178 2.04678L9.66856 0.293681ZM8.25338 13.859C8.6479 13.493 9.26127 13.5049 9.64136 13.8858L11.3906 15.6389C11.7907 16.04 11.7781 16.693 11.3628 17.0784L5.52209 22.4966C5.15536 22.8368 4.59364 22.8537 4.20714 22.5361L0.365164 19.3793C-0.072437 19.0197 -0.124355 18.3688 0.250713 17.9444L1.88434 16.0959C2.24076 15.6926 2.85245 15.6438 3.26836 15.9854L4.02184 16.6043C4.40834 16.9218 4.96995 16.9048 5.33663 16.5647L8.25338 13.859ZM13.2497 15.9026C13.2497 15.6264 13.4735 15.4026 13.7497 15.4026H35.5587C35.8348 15.4026 36.0587 15.6264 36.0587 15.9026V19.3012C36.0587 19.5773 35.8348 19.8012 35.5587 19.8012H13.7497C13.4735 19.8012 13.2497 19.5773 13.2497 19.3012V15.9026ZM9.64136 27.4591C9.26127 27.0782 8.6479 27.0663 8.25338 27.4323L5.33663 30.138C4.96995 30.4781 4.40834 30.495 4.02184 30.1776L3.26836 29.5587C2.85245 29.2171 2.24076 29.2659 1.88434 29.6692L0.250713 31.5177C-0.124355 31.9421 -0.072437 32.593 0.365164 32.9525L4.20714 36.1094C4.59364 36.427 5.15536 36.4101 5.52209 36.0699L11.3628 30.6516C11.7781 30.2663 11.7907 29.6133 11.3906 29.2122L9.64136 27.4591ZM13.7497 28.9758C13.4735 28.9758 13.2497 29.1997 13.2497 29.4758V32.8745C13.2497 33.1506 13.4735 33.3745 13.7497 33.3745H35.5587C35.8348 33.3745 36.0587 33.1506 36.0587 32.8745V29.4758C36.0587 29.1997 35.8348 28.9758 35.5587 28.9758H13.7497ZM13.7769 1.81043C13.5007 1.81043 13.2769 2.03428 13.2769 2.31043V5.70907C13.2769 5.98521 13.5007 6.20907 13.7769 6.20907H35.5859C35.862 6.20907 36.0859 5.98521 36.0859 5.70907V2.31043C36.0859 2.03428 35.862 1.81043 35.5859 1.81043H13.7769Z"/>
            </mask>
            <path d="M8.28058 0.266866L11.0009 3.19941L11.0009 3.1994L8.28058 0.266866ZM9.66856 0.293681L6.83699 3.11896L6.83699 3.11896L9.66856 0.293681ZM3.29556 2.39328L0.756703 5.48427L3.29556 2.39328ZM1.91154 2.50381L4.90877 5.15269L4.90877 5.15269L1.91154 2.50381ZM0.27791 4.35227L-2.71933 1.70339V1.70339L0.27791 4.35227ZM0.392361 5.78712L-2.14707 8.87764L-2.14707 8.87764L0.392361 5.78712ZM4.23433 8.94401L1.69491 12.0345L1.69491 12.0345L4.23433 8.94401ZM5.54929 8.9045L8.26969 11.837L8.26969 11.837L5.54929 8.9045ZM11.39 3.48622L8.66958 0.553744L8.66957 0.553746L11.39 3.48622ZM11.4178 2.04678L8.5862 4.87207L8.5862 4.87207L11.4178 2.04678ZM9.64136 13.8858L12.4729 11.0605L12.4729 11.0605L9.64136 13.8858ZM8.25338 13.859L5.53305 10.9265L5.53305 10.9265L8.25338 13.859ZM11.3906 15.6389L14.2221 12.8136V12.8136L11.3906 15.6389ZM11.3628 17.0784L8.64238 14.1459L8.64238 14.1459L11.3628 17.0784ZM5.52209 22.4966L8.24249 25.4291L8.24249 25.4291L5.52209 22.4966ZM4.20714 22.5361L1.66771 25.6267H1.66771L4.20714 22.5361ZM0.365164 19.3793L-2.17427 22.4698L-2.17427 22.4698L0.365164 19.3793ZM0.250713 17.9444L-2.74652 15.2955V15.2955L0.250713 17.9444ZM1.88434 16.0959L-1.1129 13.4471H-1.1129L1.88434 16.0959ZM3.26836 15.9854L0.729505 19.0764H0.729507L3.26836 15.9854ZM8.25338 27.4323L10.9737 30.3648L10.9737 30.3648L8.25338 27.4323ZM9.64136 27.4591L12.4729 24.6338L12.4729 24.6338L9.64136 27.4591ZM3.26836 29.5587L5.80722 26.4677L5.80722 26.4677L3.26836 29.5587ZM1.88434 29.6692L-1.1129 27.0203L-1.1129 27.0203L1.88434 29.6692ZM0.250713 31.5177L-2.74652 28.8688V28.8688L0.250713 31.5177ZM0.365164 32.9525L2.90459 29.862H2.90459L0.365164 32.9525ZM4.20714 36.1094L1.66771 39.1999L1.66772 39.2L4.20714 36.1094ZM5.52209 36.0699L8.24249 39.0024L8.24249 39.0024L5.52209 36.0699ZM11.3628 30.6516L8.64238 27.7192L8.64238 27.7192L11.3628 30.6516ZM11.3906 29.2122L8.559 32.0375V32.0375L11.3906 29.2122ZM5.33663 30.138L2.6163 27.2054L5.33663 30.138ZM4.02184 30.1776L1.48298 33.2686L4.02184 30.1776ZM5.36383 2.97255L2.6435 0.0400124L5.36383 2.97255ZM4.04903 3.01216L6.58789 -0.0788226L4.04903 3.01216ZM11.0009 3.1994C9.81737 4.29731 7.97724 4.26175 6.83699 3.11896L12.5001 -2.5316C10.5997 -4.43625 7.53282 -4.4955 5.56025 -2.66567L11.0009 3.1994ZM8.08416 5.90509L11.0009 3.19941L5.56025 -2.66567L2.6435 0.0400124L8.08416 5.90509ZM0.756703 5.48427L1.51018 6.10315L6.58789 -0.0788226L5.83442 -0.697706L0.756703 5.48427ZM4.90877 5.15269C3.83951 6.36257 2.00444 6.50913 0.756703 5.48427L5.83442 -0.697706C3.75486 -2.4058 0.696413 -2.16155 -1.0857 -0.145074L4.90877 5.15269ZM3.27515 7.00115L4.90877 5.15269L-1.0857 -0.145075L-2.71933 1.70339L3.27515 7.00115ZM2.93179 2.69661C4.24459 3.77532 4.40035 5.72798 3.27515 7.00115L-2.71933 1.70339C-4.59466 3.82535 -4.33507 7.07979 -2.14707 8.87764L2.93179 2.69661ZM6.77376 5.85349L2.93179 2.6966L-2.14707 8.87764L1.69491 12.0345L6.77376 5.85349ZM2.82889 5.97202C3.92911 4.95138 5.61426 4.90075 6.77376 5.85349L1.69491 12.0345C3.62742 13.6224 6.436 13.5381 8.26969 11.837L2.82889 5.97202ZM8.66957 0.553746L2.82889 5.97202L8.26969 11.837L14.1104 6.4187L8.66957 0.553746ZM8.5862 4.87207C7.3857 3.6689 7.42353 1.70967 8.66958 0.553744L14.1104 6.4187C16.1871 4.49215 16.2502 1.22678 14.2493 -0.778499L8.5862 4.87207ZM6.83699 3.11896L8.5862 4.87207L14.2493 -0.778498L12.5001 -2.5316L6.83699 3.11896ZM12.4729 11.0605C10.5725 9.15588 7.50563 9.09663 5.53305 10.9265L10.9737 16.7915C9.79017 17.8894 7.95004 17.8539 6.80979 16.7111L12.4729 11.0605ZM14.2221 12.8136L12.4729 11.0605L6.80979 16.7111L8.559 18.4642L14.2221 12.8136ZM14.0832 20.0108C16.1599 18.0843 16.223 14.8189 14.2221 12.8136L8.559 18.4642C7.35851 17.261 7.39633 15.3018 8.64238 14.1459L14.0832 20.0108ZM8.24249 25.4291L14.0832 20.0108L8.64238 14.1459L2.80169 19.5642L8.24249 25.4291ZM1.66771 25.6267C3.60022 27.2146 6.4088 27.1302 8.24249 25.4291L2.8017 19.5641C3.90191 18.5435 5.58706 18.4929 6.74657 19.4456L1.66771 25.6267ZM-2.17427 22.4698L1.66771 25.6267L6.74657 19.4456L2.90459 16.2887L-2.17427 22.4698ZM-2.74652 15.2955C-4.62186 17.4175 -4.36227 20.6719 -2.17427 22.4698L2.9046 16.2887C4.21739 17.3674 4.37315 19.3201 3.24795 20.5933L-2.74652 15.2955ZM-1.1129 13.4471L-2.74652 15.2955L3.24795 20.5933L4.88158 18.7448L-1.1129 13.4471ZM5.80722 12.8944C3.72767 11.1863 0.669217 11.4306 -1.1129 13.4471L4.88158 18.7448C3.81231 19.9547 1.97724 20.1013 0.729505 19.0764L5.80722 12.8944ZM6.56069 13.5133L5.80722 12.8944L0.729507 19.0764L1.48298 19.6953L6.56069 13.5133ZM5.53305 10.9265L2.6163 13.6321L8.05697 19.4972L10.9737 16.7915L5.53305 10.9265ZM13.7497 11.4026C11.2644 11.4026 9.24966 13.4173 9.24966 15.9026H17.2497C17.2497 17.8355 15.6827 19.4026 13.7497 19.4026V11.4026ZM35.5587 11.4026H13.7497V19.4026H35.5587V11.4026ZM40.0587 15.9026C40.0587 13.4173 38.044 11.4026 35.5587 11.4026V19.4026C33.6257 19.4026 32.0587 17.8356 32.0587 15.9026H40.0587ZM40.0587 19.3012V15.9026H32.0587V19.3012H40.0587ZM35.5587 23.8012C38.044 23.8012 40.0587 21.7865 40.0587 19.3012H32.0587C32.0587 17.3682 33.6257 15.8012 35.5587 15.8012V23.8012ZM13.7497 23.8012H35.5587V15.8012H13.7497V23.8012ZM9.24966 19.3012C9.24966 21.7865 11.2644 23.8012 13.7497 23.8012V15.8012C15.6827 15.8012 17.2497 17.3682 17.2497 19.3012H9.24966ZM9.24966 15.9026V19.3012H17.2497V15.9026H9.24966ZM10.9737 30.3648C9.79018 31.4627 7.95004 31.4272 6.80979 30.2844L12.4729 24.6338C10.5725 22.7292 7.50562 22.6699 5.53305 24.4997L10.9737 30.3648ZM8.05697 33.0705L10.9737 30.3648L5.53305 24.4997L2.6163 27.2054L8.05697 33.0705ZM0.729506 32.6497L1.48298 33.2686L6.56069 27.0866L5.80722 26.4677L0.729506 32.6497ZM4.88158 32.3181C3.81231 33.528 1.97724 33.6745 0.72951 32.6497L5.80722 26.4677C3.72766 24.7596 0.669217 25.0039 -1.1129 27.0203L4.88158 32.3181ZM3.24795 34.1666L4.88158 32.3181L-1.1129 27.0203L-2.74652 28.8688L3.24795 34.1666ZM2.90459 29.862C4.2174 30.9407 4.37315 32.8934 3.24795 34.1666L-2.74652 28.8688C-4.62186 30.9908 -4.36227 34.2452 -2.17426 36.0431L2.90459 29.862ZM6.74657 33.0189L2.90459 29.862L-2.17427 36.043L1.66771 39.1999L6.74657 33.0189ZM2.8017 33.1374C3.90192 32.1168 5.58706 32.0662 6.74656 33.0189L1.66772 39.2C3.60022 40.7878 6.40879 40.7035 8.24249 39.0024L2.8017 33.1374ZM8.64238 27.7192L2.80169 33.1374L8.24249 39.0024L14.0832 33.5841L8.64238 27.7192ZM8.559 32.0375C7.35851 30.8343 7.39633 28.8751 8.64238 27.7192L14.0832 33.5841C16.1599 31.6576 16.223 28.3922 14.2221 26.3869L8.559 32.0375ZM6.80979 30.2844L8.559 32.0375L14.2221 26.3869L12.4729 24.6338L6.80979 30.2844ZM17.2497 29.4758C17.2497 31.4088 15.6827 32.9758 13.7497 32.9758V24.9758C11.2644 24.9758 9.24966 26.9906 9.24966 29.4758H17.2497ZM17.2497 32.8745V29.4758H9.24966V32.8745H17.2497ZM13.7497 29.3745C15.6827 29.3745 17.2497 30.9415 17.2497 32.8745H9.24966C9.24966 35.3598 11.2644 37.3745 13.7497 37.3745V29.3745ZM35.5587 29.3745H13.7497V37.3745H35.5587V29.3745ZM32.0587 32.8745C32.0587 30.9415 33.6257 29.3745 35.5587 29.3745V37.3745C38.044 37.3745 40.0587 35.3598 40.0587 32.8745H32.0587ZM32.0587 29.4758V32.8745H40.0587V29.4758H32.0587ZM35.5587 32.9758C33.6257 32.9758 32.0587 31.4088 32.0587 29.4758H40.0587C40.0587 26.9906 38.044 24.9758 35.5587 24.9758V32.9758ZM13.7497 32.9758H35.5587V24.9758H13.7497V32.9758ZM17.2769 2.31043C17.2769 4.24342 15.7099 5.81043 13.7769 5.81043V-2.18957C11.2916 -2.18957 9.27686 -0.174855 9.27686 2.31043H17.2769ZM17.2769 5.70907V2.31043H9.27686V5.70907H17.2769ZM13.7769 2.20907C15.7099 2.20907 17.2769 3.77607 17.2769 5.70907H9.27686C9.27686 8.19435 11.2916 10.2091 13.7769 10.2091V2.20907ZM35.5859 2.20907H13.7769V10.2091H35.5859V2.20907ZM32.0859 5.70907C32.0859 3.77609 33.6529 2.20907 35.5859 2.20907V10.2091C38.0712 10.2091 40.0859 8.19433 40.0859 5.70907H32.0859ZM32.0859 2.31043V5.70907H40.0859V2.31043H32.0859ZM35.5859 5.81043C33.6529 5.81043 32.0859 4.24342 32.0859 2.31043H40.0859C40.0859 -0.174857 38.0712 -2.18957 35.5859 -2.18957V5.81043ZM13.7769 5.81043H35.5859V-2.18957H13.7769V5.81043ZM1.48298 19.6953C3.41548 21.2826 6.22352 21.198 8.05697 19.4972L2.6163 13.6321C3.71637 12.6117 5.4012 12.5609 6.56069 13.5133L1.48298 19.6953ZM2.6163 27.2054C3.71636 26.185 5.40119 26.1342 6.56069 27.0866L1.48298 33.2686C3.41548 34.8559 6.22353 34.7713 8.05697 33.0705L2.6163 27.2054ZM2.6435 0.0400124C3.74356 -0.980445 5.42839 -1.03121 6.58789 -0.0788226L1.51018 6.10315C3.44268 7.69046 6.25073 7.60586 8.08416 5.90509L2.6435 0.0400124Z" fill="black" fill-opacity="1" mask="url(#path-1-inside-1_3276_7092)"/>
        </g>
    </g>
</svg>
