<svg width="32" height="37" viewBox="0 0 32 37" fill="none" xmlns="http://www.w3.org/2000/svg">
    <g id="&#231;&#188;&#150;&#231;&#187;&#132; 22">
        <g id="&#231;&#188;&#150;&#231;&#187;&#132; 18">
            <g id="&#231;&#159;&#169;&#229;&#189;&#162;">
                <mask id="path-1-inside-1_3276_7071" fill="white">
                    <path d="M9.14258 1C9.14258 0.447716 9.59029 0 10.1426 0H23.1426V3.02342C23.1426 3.5757 22.6949 4.02342 22.1426 4.02342H9.14258V1Z"/>
                </mask>
                <path d="M9.14258 1C9.14258 0.447716 9.59029 0 10.1426 0H23.1426V3.02342C23.1426 3.5757 22.6949 4.02342 22.1426 4.02342H9.14258V1Z" stroke="black" stroke-opacity="1" stroke-width="4.02342" mask="url(#path-1-inside-1_3276_7071)"/>
            </g>
            <path id="Union" d="M32 9.05856C32 9.57623 31.6067 10.0024 31.1025 10.0537L31 10.0586H29V35.2109C28.9999 35.7631 28.5522 36.2109 28 36.2109H4C3.44777 36.2109 3.00008 35.7631 3 35.2109V10.0586H0V7.03513C2.69928e-07 6.48284 0.447715 6.03513 1 6.03513H32V9.05856ZM7 10.0586V32.2109H25V10.0586H7Z" fill="black" fill-opacity="1"/>
            <g id="&#229;&#189;&#162;&#231;&#138;&#182;&#231;&#187;&#147;&#229;&#144;&#136;">
                <mask id="path-3-inside-2_3276_7071" fill="white">
                    <path d="M14 26.1581C14 26.7104 13.5523 27.1581 13 27.1581H11C10.4477 27.1581 10 26.7104 10 26.1581V16.0878C10 15.5355 10.4477 15.0878 11 15.0878H13C13.5523 15.0878 14 15.5355 14 16.0878V26.1581ZM22 26.1581C22 26.7104 21.5523 27.1581 21 27.1581H19C18.4477 27.1581 18 26.7104 18 26.1581V16.0878C18 15.5355 18.4477 15.0878 19 15.0878H21C21.5523 15.0878 22 15.5355 22 16.0878V26.1581Z"/>
                </mask>
                <path d="M13 27.1581V23.1581H11V27.1581V31.1581H13V27.1581ZM10 26.1581H14V16.0878H10H6V26.1581H10ZM11 15.0878V19.0878H13V15.0878V11.0878H11V15.0878ZM14 16.0878H10V26.1581H14H18V16.0878H14ZM21 27.1581V23.1581H19V27.1581V31.1581H21V27.1581ZM18 26.1581H22V16.0878H18H14V26.1581H18ZM19 15.0878V19.0878H21V15.0878V11.0878H19V15.0878ZM22 16.0878H18V26.1581H22H26V16.0878H22ZM21 15.0878V19.0878C19.3431 19.0878 18 17.7447 18 16.0878H22H26C26 13.3264 23.7614 11.0878 21 11.0878V15.0878ZM18 16.0878H22C22 17.7447 20.6569 19.0878 19 19.0878V15.0878V11.0878C16.2386 11.0878 14 13.3264 14 16.0878H18ZM19 27.1581V23.1581C20.6569 23.1581 22 24.5013 22 26.1581H18H14C14 28.9196 16.2386 31.1581 19 31.1581V27.1581ZM21 27.1581V31.1581C23.7614 31.1581 26 28.9196 26 26.1581H22H18C18 24.5013 19.3431 23.1581 21 23.1581V27.1581ZM13 15.0878V19.0878C11.3431 19.0878 10 17.7447 10 16.0878H14H18C18 13.3264 15.7614 11.0878 13 11.0878V15.0878ZM10 16.0878H14C14 17.7447 12.6569 19.0878 11 19.0878V15.0878V11.0878C8.23858 11.0878 6 13.3264 6 16.0878H10ZM11 27.1581V23.1581C12.6569 23.1581 14 24.5013 14 26.1581H10H6C6 28.9196 8.23858 31.1581 11 31.1581V27.1581ZM13 27.1581V31.1581C15.7614 31.1581 18 28.9196 18 26.1581H14H10C10 24.5013 11.3431 23.1581 13 23.1581V27.1581Z" fill="black" fill-opacity="1" mask="url(#path-3-inside-2_3276_7071)"/>
            </g>
        </g>
    </g>
</svg>
