<svg width="20" height="20" viewBox="0 0 20 20" fill="none" xmlns="http://www.w3.org/2000/svg">
  <path fill-rule="evenodd" clip-rule="evenodd" d="M10 2C5.58172 2 2 5.58172 2 10C2 14.4183 5.58172 18 10 18C14.4183 18 18 14.4183 18 10C18 5.58172 14.4183 2 10 2ZM10 0.5C4.75329 0.5 0.5 4.75329 0.5 10C0.5 15.2467 4.75329 19.5 10 19.5C15.2467 19.5 19.5 15.2467 19.5 10C19.5 4.75329 15.2467 0.5 10 0.5ZM10 6C9.44772 6 9 6.44772 9 7C9 7.55228 9.44772 8 10 8C10.5523 8 11 7.55228 11 7C11 6.44772 10.5523 6 10 6ZM9.25 9.5C9.25 9.08579 9.58579 8.75 10 8.75C10.4142 8.75 10.75 9.08579 10.75 9.5V14C10.75 14.4142 10.4142 14.75 10 14.75C9.58579 14.75 9.25 14.4142 9.25 14V9.5Z" fill="#147AFF"/>
</svg>
