<svg width="16" height="16" viewBox="0 0 16 16" fill="none" xmlns="http://www.w3.org/2000/svg">
    <path d="M11 3.25C12.2598 3.25 13.468 3.7507 14.3588 4.64152C15.2493 5.5321 15.75 6.7402 15.75 8.5C15.75 10.2598 15.2493 11.4679 14.3588 12.3585C13.468 13.2493 12.2598 13.75 11 13.75V12.25C11.8631 12.25 12.6907 11.907 13.2988 11.2988C13.907 10.6907 14.25 9.8631 14.25 8.5C14.25 7.1369 13.907 6.3093 13.2988 5.7012C12.6907 5.093 11.8631 4.75 11 4.75V3.25Z" fill="black" fill-opacity="1"/>
    <path d="M2 3.25H11V4.75H2V3.25Z" fill="black" fill-opacity="1"/>
    <path d="M2 12.25H11V13.75H2V12.25Z" fill="black" fill-opacity="1"/>
    <path d="M0.593 4.411C0.306 4.212 0.306 3.788 0.593 3.589L2.965 1.946C3.297 1.716 3.75 1.953 3.75 2.357V5.643C3.75 6.047 3.297 6.284 2.965 6.054L0.593 4.411Z" fill="black" fill-opacity="1"/>
</svg>