<svg width="36" height="35" viewBox="0 0 36 35" fill="none" xmlns="http://www.w3.org/2000/svg">
  <path d="M33.7256 16.5273L21.0576 29.8164V24.875C21.0574 23.3314 19.8472 21.9401 18.1836 21.9053L18.0215 21.9062C16.7385 21.9471 14.9971 22.1278 13.0596 22.6719L13.0576 22.6729C8.51881 23.9535 4.80699 26.6205 2.01172 30.5283C1.9864 29.656 1.99796 28.5808 2.10254 27.3867C2.26749 25.5387 2.61391 23.8123 3.12988 22.2559C3.78364 20.2852 4.70563 18.5763 5.85352 17.1523C8.55116 13.8195 12.6304 11.8452 18.2939 11.4697C19.8397 11.3672 21.1268 10.0934 21.127 8.45996V3.25488L33.7256 16.5273Z" fill="black" fill-opacity="1"/>
</svg>
