<svg width="36" height="35" viewBox="0 0 36 35" fill="none" xmlns="http://www.w3.org/2000/svg">
    <g id="&#231;&#188;&#150;&#231;&#187;&#132; 12">
        <g id="&#231;&#188;&#150;&#231;&#187;&#132;">
            <path id="&#232;&#183;&#175;&#229;&#190;&#132;" d="M34 2V28.5781H21.9785C21.2216 28.5781 20.4944 28.8645 19.9414 29.376L19.834 29.4814L17.999 31.3564L16.167 29.4824L16.0586 29.377C15.5056 28.8655 14.7784 28.5791 14.0215 28.5791H2V2H34Z" stroke="black" stroke-opacity="0.55" stroke-width="4"/>
        </g>
        <g id="&#231;&#159;&#169;&#229;&#189;&#162;">
            <mask id="path-2-inside-1_3276_7107" fill="white">
                <path d="M9 14.0833C9 13.531 9.44772 13.0833 10 13.0833H13V16.1089C13 16.6612 12.5523 17.1089 12 17.1089H9V14.0833Z"/>
            </mask>
            <path d="M9 14.0833C9 13.531 9.44772 13.0833 10 13.0833H13V16.1089C13 16.6612 12.5523 17.1089 12 17.1089H9V14.0833Z" stroke="black" stroke-opacity="0.55" stroke-width="4" mask="url(#path-2-inside-1_3276_7107)"/>
        </g>
        <g id="&#231;&#159;&#169;&#229;&#189;&#162;_2">
            <mask id="path-3-inside-2_3276_7107" fill="white">
                <path d="M16 14.0833C16 13.531 16.4477 13.0833 17 13.0833H20V16.1089C20 16.6612 19.5523 17.1089 19 17.1089H16V14.0833Z"/>
            </mask>
            <path d="M16 14.0833C16 13.531 16.4477 13.0833 17 13.0833H20V16.1089C20 16.6612 19.5523 17.1089 19 17.1089H16V14.0833Z" stroke="black" stroke-opacity="0.55" stroke-width="4" mask="url(#path-3-inside-2_3276_7107)"/>
        </g>
        <g id="&#231;&#159;&#169;&#229;&#189;&#162;_3">
            <mask id="path-4-inside-3_3276_7107" fill="white">
                <path d="M23 14.0833C23 13.531 23.4477 13.0833 24 13.0833H27V16.1089C27 16.6612 26.5523 17.1089 26 17.1089H23V14.0833Z"/>
            </mask>
            <path d="M23 14.0833C23 13.531 23.4477 13.0833 24 13.0833H27V16.1089C27 16.6612 26.5523 17.1089 26 17.1089H23V14.0833Z" stroke="black" stroke-opacity="0.55" stroke-width="4" mask="url(#path-4-inside-3_3276_7107)"/>
        </g>
    </g>
</svg>
