<svg width="16" height="16" viewBox="0 0 16 16" fill="none" xmlns="http://www.w3.org/2000/svg">
    <path fill-rule="evenodd" clip-rule="evenodd" d="M3.52851 7.52851C3.78886 7.26816 4.21097 7.26816 4.47132 7.52851L7.13799 10.1952C7.39834 10.4555 7.39834 10.8776 7.13799 11.138C6.87764 11.3983 6.45553 11.3983 6.19518 11.138L3.52851 8.47132C3.26816 8.21097 3.26816 7.78886 3.52851 7.52851Z" fill="black" fill-opacity="0.4"/>
    <path fill-rule="evenodd" clip-rule="evenodd" d="M12.4714 4.86201C12.7318 5.12236 12.7318 5.54447 12.4714 5.80482L7.13807 11.1382C6.87772 11.3985 6.45561 11.3985 6.19526 11.1382C5.93491 10.8778 5.93491 10.4557 6.19526 10.1953L11.5286 4.86201C11.7889 4.60166 12.2111 4.60166 12.4714 4.86201Z" fill="black" fill-opacity="0.4"/>
</svg>
