<svg width="16" height="16" viewBox="0 0 16 16" fill="none" xmlns="http://www.w3.org/2000/svg">
    <path fill-rule="evenodd" clip-rule="evenodd" d="M1.53272 7.52851C1.79379 7.26816 2.21708 7.26816 2.47815 7.52851L5.15225 10.1952C5.41332 10.4555 5.41332 10.8776 5.15225 11.138C4.89117 11.3983 4.46789 11.3983 4.20681 11.138L1.53272 8.47132C1.27165 8.21097 1.27165 7.78886 1.53272 7.52851Z" fill="#1C66E5"/>
    <path fill-rule="evenodd" clip-rule="evenodd" d="M6.21241 8.19526C6.47348 7.93491 6.89677 7.93491 7.15784 8.19526L9.16341 10.1953C9.42448 10.4556 9.42448 10.8777 9.16341 11.1381C8.90234 11.3984 8.47905 11.3984 8.21798 11.1381L6.21241 9.13807C5.95133 8.87772 5.95133 8.45561 6.21241 8.19526Z" fill="#1C66E5"/>
    <path fill-rule="evenodd" clip-rule="evenodd" d="M10.5007 4.86201C10.7617 5.12236 10.7617 5.54447 10.5007 5.80482L5.15247 11.1382C4.8914 11.3985 4.46811 11.3985 4.20704 11.1382C3.94596 10.8778 3.94596 10.4557 4.20704 10.1953L9.55522 4.86201C9.8163 4.60166 10.2396 4.60166 10.5007 4.86201Z" fill="#1C66E5"/>
    <path fill-rule="evenodd" clip-rule="evenodd" d="M14.5116 4.86201C14.7727 5.12236 14.7727 5.54447 14.5116 5.80482L9.16346 11.1382C8.90238 11.3985 8.4791 11.3985 8.21802 11.1382C7.95695 10.8778 7.95695 10.4557 8.21802 10.1953L13.5662 4.86201C13.8273 4.60166 14.2506 4.60166 14.5116 4.86201Z" fill="#1C66E5"/>
</svg>
