<svg width="26" height="21" viewBox="0 0 26 21" fill="none" xmlns="http://www.w3.org/2000/svg">
  <!-- Image gallery icon with fill style -->
  <path d="M4 2C2.89543 2 2 2.89543 2 4V17C2 18.1046 2.89543 19 4 19H22C23.1046 19 24 18.1046 24 17V4C24 2.89543 23.1046 2 22 2H4ZM8 6.5C8 5.67157 7.32843 5 6.5 5C5.67157 5 5 5.67157 5 6.5C5 7.32843 5.67157 8 6.5 8C7.32843 8 8 7.32843 8 6.5ZM4.70711 12.7071L7.79289 9.62132C8.18342 9.2308 8.81658 9.2308 9.20711 9.62132L11.5 11.9142L15.2929 8.12132C15.6834 7.7308 16.3166 7.7308 16.7071 8.12132L22.2929 13.7071C22.9229 14.3371 22.4767 15.5 21.5858 15.5H5.41421C4.52331 15.5 4.07714 14.3371 4.70711 12.7071Z" fill="black" fill-opacity="0.55"/>
</svg>
