<svg width="24" height="24" viewBox="0 0 24 24" fill="none" xmlns="http://www.w3.org/2000/svg">
  <path fill-rule="evenodd" clip-rule="evenodd" d="M12 2C6.48 2 2 6.48 2 12C2 17.52 6.48 22 12 22C17.52 22 22 17.52 22 12C22 6.48 17.52 2 12 2ZM12 20C7.59 20 4 16.41 4 12C4 7.59 7.59 4 12 4C16.41 4 20 7.59 20 12C20 16.41 16.41 20 12 20ZM12 6C10.34 6 9 7.34 9 9V12C9 13.66 10.34 15 12 15C13.66 15 15 13.66 15 12V9C15 7.34 13.66 6 12 6ZM11 9C11 8.45 11.45 8 12 8C12.55 8 13 8.45 13 9V12C13 12.55 12.55 13 12 13C11.45 13 11 12.55 11 12V9ZM17 12C17 14.76 14.76 17 12 17C9.24 17 7 14.76 7 12H5C5 15.53 7.61 18.43 11 18.92V21H13V18.92C16.39 18.43 19 15.53 19 12H17Z" fill="currentColor"/>
</svg>
